{"accessors":[{"bufferView":1,"byteOffset":0,"componentType":5125,"count":4209,"type":"SCALAR"},{"bufferView":2,"byteOffset":0,"componentType":5126,"count":981,"type":"VEC3","max":[-0.0405275821685791,0.003752470016479492,9.780793190002441],"min":[-6.5033111572265625,-4.102097034454346,-0.011988438665866852]},{"bufferView":3,"byteOffset":0,"componentType":5126,"count":981,"type":"VEC2"},{"bufferView":5,"byteOffset":0,"componentType":5125,"count":3588,"type":"SCALAR"},{"bufferView":6,"byteOffset":0,"componentType":5126,"count":878,"type":"VEC3","max":[6.503518104553223,0.003848571330308914,9.780765533447266],"min":[-0.09639153629541397,-4.152050971984863,-0.011977708898484707]},{"bufferView":7,"byteOffset":0,"componentType":5126,"count":878,"type":"VEC2"},{"bufferView":9,"byteOffset":0,"componentType":5125,"count":3765,"type":"SCALAR"},{"bufferView":10,"byteOffset":0,"componentType":5126,"count":904,"type":"VEC3","max":[-0.040519632399082184,0.003739476902410388,0.04382694140076637],"min":[-6.503280162811279,-4.1579508781433105,-9.779630661010742]},{"bufferView":11,"byteOffset":0,"componentType":5126,"count":904,"type":"VEC2"},{"bufferView":13,"byteOffset":0,"componentType":5125,"count":3294,"type":"SCALAR"},{"bufferView":14,"byteOffset":0,"componentType":5126,"count":902,"type":"VEC3","max":[6.503536224365234,0.0038372816052287817,0.04381425678730011],"min":[-0.09635024517774582,-4.105186462402344,-9.779624938964844]},{"bufferView":15,"byteOffset":0,"componentType":5126,"count":902,"type":"VEC2"},{"bufferView":17,"byteOffset":0,"componentType":5125,"count":2034,"type":"SCALAR"},{"bufferView":18,"byteOffset":0,"componentType":5126,"count":536,"type":"VEC3","max":[-0.040675193071365356,4.506451606750488,3.0898680686950684],"min":[-3.831434965133667,-0.05204727500677109,-0.011942467652261257]},{"bufferView":19,"byteOffset":0,"componentType":5126,"count":536,"type":"VEC2"},{"bufferView":21,"byteOffset":0,"componentType":5125,"count":1275,"type":"SCALAR"},{"bufferView":22,"byteOffset":0,"componentType":5126,"count":315,"type":"VEC3","max":[3.669119358062744,4.510693550109863,2.870335340499878],"min":[-0.09649959206581116,-0.05195137858390808,-0.011937533505260944]},{"bufferView":23,"byteOffset":0,"componentType":5126,"count":315,"type":"VEC2"},{"bufferView":25,"byteOffset":0,"componentType":5125,"count":3840,"type":"SCALAR"},{"bufferView":26,"byteOffset":0,"componentType":5126,"count":1032,"type":"VEC3","max":[-0.0406745970249176,3.3145995140075684,0.04379281774163246],"min":[-4.220914840698242,-0.05207916349172592,-6.272942543029785]},{"bufferView":27,"byteOffset":0,"componentType":5126,"count":1032,"type":"VEC2"},{"bufferView":29,"byteOffset":0,"componentType":5125,"count":2415,"type":"SCALAR"},{"bufferView":30,"byteOffset":0,"componentType":5126,"count":589,"type":"VEC3","max":[3.566741943359375,3.0459954738616943,0.04380322992801666],"min":[-0.09646813571453094,-0.051972001791000366,-6.497997760772705]},{"bufferView":31,"byteOffset":0,"componentType":5126,"count":589,"type":"VEC2"}],"asset":{"generator":"wrs3m-to-gltf","version":"2.0"},"buffers":[{"uri":"schoolhouse.bin","byteLength":362912}],"bufferViews":[{"buffer":0,"byteLength":22266,"byteOffset":0},{"buffer":0,"target":34963,"byteOffset":22268,"byteLength":16836},{"buffer":0,"target":34962,"byteOffset":39104,"byteLength":11772,"byteStride":12},{"buffer":0,"target":34962,"byteOffset":50876,"byteLength":7848,"byteStride":8},{"buffer":0,"byteLength":24324,"byteOffset":58724},{"buffer":0,"target":34963,"byteOffset":83048,"byteLength":14352},{"buffer":0,"target":34962,"byteOffset":97400,"byteLength":10536,"byteStride":12},{"buffer":0,"target":34962,"byteOffset":107936,"byteLength":7024,"byteStride":8},{"buffer":0,"byteLength":20202,"byteOffset":114960},{"buffer":0,"target":34963,"byteOffset":135164,"byteLength":15060},{"buffer":0,"target":34962,"byteOffset":150224,"byteLength":10848,"byteStride":12},{"buffer":0,"target":34962,"byteOffset":161072,"byteLength":7232,"byteStride":8},{"buffer":0,"byteLength":22602,"byteOffset":168304},{"buffer":0,"target":34963,"byteOffset":190908,"byteLength":13176},{"buffer":0,"target":34962,"byteOffset":204084,"byteLength":10824,"byteStride":12},{"buffer":0,"target":34962,"byteOffset":214908,"byteLength":7216,"byteStride":8},{"buffer":0,"byteLength":11586,"byteOffset":222124},{"buffer":0,"target":34963,"byteOffset":233712,"byteLength":8136},{"buffer":0,"target":34962,"byteOffset":241848,"byteLength":6432,"byteStride":12},{"buffer":0,"target":34962,"byteOffset":248280,"byteLength":4288,"byteStride":8},{"buffer":0,"byteLength":8930,"byteOffset":252568},{"buffer":0,"target":34963,"byteOffset":261500,"byteLength":5100},{"buffer":0,"target":34962,"byteOffset":266600,"byteLength":3780,"byteStride":12},{"buffer":0,"target":34962,"byteOffset":270380,"byteLength":2520,"byteStride":8},{"buffer":0,"byteLength":17395,"byteOffset":272900},{"buffer":0,"target":34963,"byteOffset":290296,"byteLength":15360},{"buffer":0,"target":34962,"byteOffset":305656,"byteLength":12384,"byteStride":12},{"buffer":0,"target":34962,"byteOffset":318040,"byteLength":8256,"byteStride":8},{"buffer":0,"byteLength":15173,"byteOffset":326296},{"buffer":0,"target":34963,"byteOffset":341472,"byteLength":9660},{"buffer":0,"target":34962,"byteOffset":351132,"byteLength":7068,"byteStride":12},{"buffer":0,"target":34962,"byteOffset":358200,"byteLength":4712,"byteStride":8}],"extensionsUsed":["KHR_materials_unlit"],"extensionsRequired":["KHR_materials_unlit"],"extras":{"ecefTransform":[0.969332609168107,0.24575250314767869,0,0,0.18769403137749857,-0.7403299776405544,0.6455094691729927,0,0.15863556785479227,-0.6257133779961768,-0.7637522669085842,0,1198830.6421747236,-4728617.025936364,4095374.210625188,1]},"images":[{"bufferView":0,"mimeType":"image/jpeg"},{"bufferView":4,"mimeType":"image/jpeg"},{"bufferView":8,"mimeType":"image/jpeg"},{"bufferView":12,"mimeType":"image/jpeg"},{"bufferView":16,"mimeType":"image/jpeg"},{"bufferView":20,"mimeType":"image/jpeg"},{"bufferView":24,"mimeType":"image/jpeg"},{"bufferView":28,"mimeType":"image/jpeg"}],"materials":[{"pbrMetallicRoughness":{"baseColorTexture":{"index":0},"baseColorFactor":[1,1,1,1]},"doubleSided":true,"extensions":{"KHR_materials_unlit":{}}},{"pbrMetallicRoughness":{"baseColorTexture":{"index":1},"baseColorFactor":[1,1,1,1]},"doubleSided":true,"extensions":{"KHR_materials_unlit":{}}},{"pbrMetallicRoughness":{"baseColorTexture":{"index":2},"baseColorFactor":[1,1,1,1]},"doubleSided":true,"extensions":{"KHR_materials_unlit":{}}},{"pbrMetallicRoughness":{"baseColorTexture":{"index":3},"baseColorFactor":[1,1,1,1]},"doubleSided":true,"extensions":{"KHR_materials_unlit":{}}},{"pbrMetallicRoughness":{"baseColorTexture":{"index":4},"baseColorFactor":[1,1,1,1]},"doubleSided":true,"extensions":{"KHR_materials_unlit":{}}},{"pbrMetallicRoughness":{"baseColorTexture":{"index":5},"baseColorFactor":[1,1,1,1]},"doubleSided":true,"extensions":{"KHR_materials_unlit":{}}},{"pbrMetallicRoughness":{"baseColorTexture":{"index":6},"baseColorFactor":[1,1,1,1]},"doubleSided":true,"extensions":{"KHR_materials_unlit":{}}},{"pbrMetallicRoughness":{"baseColorTexture":{"index":7},"baseColorFactor":[1,1,1,1]},"doubleSided":true,"extensions":{"KHR_materials_unlit":{}}}],"meshes":[{"primitives":[{"mode":4,"material":0,"indices":0,"attributes":{"POSITION":1,"TEXCOORD_0":2}}]},{"primitives":[{"mode":4,"material":1,"indices":3,"attributes":{"POSITION":4,"TEXCOORD_0":5}}]},{"primitives":[{"mode":4,"material":2,"indices":6,"attributes":{"POSITION":7,"TEXCOORD_0":8}}]},{"primitives":[{"mode":4,"material":3,"indices":9,"attributes":{"POSITION":10,"TEXCOORD_0":11}}]},{"primitives":[{"mode":4,"material":4,"indices":12,"attributes":{"POSITION":13,"TEXCOORD_0":14}}]},{"primitives":[{"mode":4,"material":5,"indices":15,"attributes":{"POSITION":16,"TEXCOORD_0":17}}]},{"primitives":[{"mode":4,"material":6,"indices":18,"attributes":{"POSITION":19,"TEXCOORD_0":20}}]},{"primitives":[{"mode":4,"material":7,"indices":21,"attributes":{"POSITION":22,"TEXCOORD_0":23}}]}],"nodes":[{"name":"_Data_Tile_p000_p000_p000_Tile_p000_p000_p000_L21_000_3mxb.b3dm","mesh":0},{"name":"_Data_Tile_p001_p000_p000_Tile_p001_p000_p000_L21_000_3mxb.b3dm","mesh":1},{"name":"_Data_Tile_p000_p001_p000_Tile_p000_p001_p000_L21_000_3mxb.b3dm","mesh":2},{"name":"_Data_Tile_p001_p001_p000_Tile_p001_p001_p000_L21_000_3mxb.b3dm","mesh":3},{"name":"_Data_Tile_p000_p000_p001_Tile_p000_p000_p001_L21_000_3mxb.b3dm","mesh":4},{"name":"_Data_Tile_p001_p000_p001_Tile_p001_p000_p001_L21_000_3mxb.b3dm","mesh":5},{"name":"_Data_Tile_p000_p001_p001_Tile_p000_p001_p001_L21_000_3mxb.b3dm","mesh":6},{"name":"_Data_Tile_p001_p001_p001_Tile_p001_p001_p001_L21_000_3mxb.b3dm","mesh":7}],"samplers":[{}],"scenes":[{"nodes":[0,1,2,3,4,5,6,7]}],"scene":0,"textures":[{"source":0,"sampler":0},{"source":1,"sampler":0},{"source":2,"sampler":0},{"source":3,"sampler":0},{"source":4,"sampler":0},{"source":5,"sampler":0},{"source":6,"sampler":0},{"source":7,"sampler":0}]}